<?xml version="1.0" standalone="no"?>
<svg xmlns:xlink="http://www.w3.org/1999/xlink" id="wave" style="transform:rotate(0deg); transition: 0.3s" viewBox="0 0 1440 320" version="1.1" xmlns="http://www.w3.org/2000/svg"><defs><linearGradient id="sw-gradient-0" x1="0" x2="0" y1="1" y2="0"><stop stop-color="rgba(255, 255, 255, 1)" offset="0%"/><stop stop-color="rgba(255, 255, 255, 1)" offset="100%"/></linearGradient></defs><path style="transform:translate(0, 0px); opacity:1" fill="url(#sw-gradient-0)" d="M0,32L48,42.7C96,53,192,75,288,101.3C384,128,480,160,576,160C672,160,768,128,864,122.7C960,117,1056,139,1152,160C1248,181,1344,203,1440,186.7C1536,171,1632,117,1728,122.7C1824,128,1920,192,2016,202.7C2112,213,2208,171,2304,154.7C2400,139,2496,149,2592,149.3C2688,149,2784,139,2880,117.3C2976,96,3072,64,3168,74.7C3264,85,3360,139,3456,149.3C3552,160,3648,128,3744,117.3C3840,107,3936,117,4032,117.3C4128,117,4224,107,4320,122.7C4416,139,4512,181,4608,213.3C4704,245,4800,267,4896,229.3C4992,192,5088,96,5184,85.3C5280,75,5376,149,5472,165.3C5568,181,5664,139,5760,149.3C5856,160,5952,224,6048,256C6144,288,6240,288,6336,282.7C6432,277,6528,267,6624,224C6720,181,6816,107,6864,69.3L6912,32L6912,320L6864,320C6816,320,6720,320,6624,320C6528,320,6432,320,6336,320C6240,320,6144,320,6048,320C5952,320,5856,320,5760,320C5664,320,5568,320,5472,320C5376,320,5280,320,5184,320C5088,320,4992,320,4896,320C4800,320,4704,320,4608,320C4512,320,4416,320,4320,320C4224,320,4128,320,4032,320C3936,320,3840,320,3744,320C3648,320,3552,320,3456,320C3360,320,3264,320,3168,320C3072,320,2976,320,2880,320C2784,320,2688,320,2592,320C2496,320,2400,320,2304,320C2208,320,2112,320,2016,320C1920,320,1824,320,1728,320C1632,320,1536,320,1440,320C1344,320,1248,320,1152,320C1056,320,960,320,864,320C768,320,672,320,576,320C480,320,384,320,288,320C192,320,96,320,48,320L0,320Z"/></svg>